<svg xmlns="http://www.w3.org/2000/svg" version="1.1" xmlns:xlink="http://www.w3.org/1999/xlink" xmlns:svgjs="http://svgjs.dev/svgjs" viewBox="0 0 800 800"><defs><linearGradient x1="50%" y1="0%" x2="50%" y2="100%" id="ccchaos-grad"><stop stop-color="hsl(162, 100%, 58%)" stop-opacity="1" offset="0%"></stop><stop stop-color="hsl(270, 73%, 53%)" stop-opacity="1" offset="100%"></stop></linearGradient></defs><g stroke-width="3" stroke="url(#ccchaos-grad)" fill="none" stroke-linecap="round"><path d="M375.06 76.75C385.41 72.8 395.62 70.45 405.67 69.96 415.74 70.97 425.67 73.98 435.46 78.75 445.3 84.53 455.05 91.34 464.74 98.7 474.54 105.78 484.35 112.59 494.19 118.84 504.23 123.92 514.4 128.2 524.72 131.73 535.32 134.19 546.16 136.28 557.23 138.3 568.63 140 580.29 142.21 592.18 145.16 604.33 148.57 616.63 153.1 628.97 158.78 641.36 165.28 653.6 172.95 665.49 181.67 677.08 191.11 688.01 201.37 698.06 212.27 707.34 223.59 715.4 235.28 722.02 247.19 727.48 259.23 731.27 271.31 733.27 283.36 734.01 295.36 732.98 307.27 730.24 319.07 726.57 330.77 721.55 342.39 715.42 353.92 709.13 365.39 702.36 376.83 695.46 388.23 689.4 399.61 683.87 411 679.19 422.37 676.15 433.75 674.37 444.82 673.85 455.54 675.04 466.23 677.27 476.5 680.32 486.27 684.52 495.91 689.02 504.94 693.49 513.26 698.28 521.35 702.46 528.63 705.79 535.03 709.45 543.8 708.62 557.14 703.73 562.41 698.97 566.24 692.8 570.17 685.35 574.55 677.09 580.12 667.77 586.7 657.6 594.58 646.92 604.17 635.63 615.24 623.91 627.75 611.98 641.54 599.81 656.11 587.54 670.89 575.27 685.3 563.01 698.51 550.84 709.68 538.77 718.44 526.84 723.97 515.06 725.89 503.42 724.78 491.93 720.41 480.6 713.4 469.38 705.43 458.29 696.94 447.32 689.19 436.42 683.99 425.6 681.66 414.88 682.82 404.18 688.07 393.54 696.56 382.98 707.37 372.42 719.64 362.16 731.12 352.22 740.37 342.26 746.87 332.61 749.15 323.28 746.97 313.92 740.97 304.88 731.22 296.17 718.74 287.43 704.86 279 690.47 270.9 676.68 262.75 664.58 254.91 654.59 247.38 647.03 239.75 642.3 232.4 639.84 225.32 639.17 218.1 640.31 211.1 642.05 204.33 643.72 197.36 645.44 190.57 645.99 183.96 645.02 177.12 642.91 170.44 638.9 163.92 633.04 157.18 625.83 150.6 617 144.23 606.84 137.68 595.74 131.37 583.77 125.35 571.23 119.23 558.29 113.47 545.14 108.11 531.99 102.78 518.8 97.92 505.79 93.6 493.05 89.41 480.4 85.82 468.05 82.88 456.03 80.14 444.1 78.08 432.45 76.76 421.1 75.66 409.78 75.31 398.71 75.71 387.89 76.33 377.07 77.67 366.75 79.68 356.91 81.82 347.07 84.58 337.72 87.89 328.87 91.23 320.01 95.05 311.64 99.31 303.77 103.48 295.84 108.01 288.35 112.85 281.25 117.52 273.99 122.45 266.98 127.6 260.16 132.52 252.95 137.64 245.73 142.96 238.37 148.04 230.4 153.32 222.12 158.81 213.45 164.1 204.1 169.64 194.35 175.44 184.26 181.1 173.73 187.08 163.13 193.38 152.7 199.62 142.45 206.22 132.86 213.18 124.24 220.15 116.53 227.5 110.21 235.22 105.46 242.99 101.88 251.13 99.83 259.61 99.16 268.15 99.07 277.02 99.73 286.18 100.75 295.4 101.15 304.88 101.12 314.58 100.36 324.32 98.15 334.25 95.02 344.35 91.1 354.45 86.2 364.7 81.23 375.05 76.76" stroke-dasharray="26 16" transform="rotate(0, 400, 400)" opacity="0.35"></path><path d="M375.22 87.63C385.21 83.68 395.13 81.26 404.95 80.62 414.78 81.41 424.54 84.13 434.23 88.59 443.96 94.07 453.67 100.65 463.37 107.88 473.18 114.98 483.04 121.95 492.97 128.48 503.09 133.98 513.35 138.73 523.77 142.75 534.43 145.67 545.31 148.12 556.39 150.33 567.72 152.06 579.26 154.07 590.94 156.6 602.8 159.37 614.71 163.07 626.56 167.76 638.36 173.13 649.92 179.61 661.03 187.12 671.77 195.34 681.79 204.45 690.89 214.29 699.22 224.62 706.34 235.48 712.06 246.68 716.7 258.12 719.77 269.74 721.17 281.42 721.45 293.16 720.12 304.88 717.24 316.51 713.57 328.13 708.69 339.65 702.83 351.05 696.89 362.43 690.53 373.7 684.07 384.86 678.4 396.02 673.21 407.07 668.78 417.98 665.87 428.89 664.08 439.38 663.42 449.42 664.34 459.42 666.21 468.9 668.85 477.81 672.58 486.61 676.61 494.76 680.68 502.19 685.1 509.47 689.04 516 692.25 521.76 696.02 529.9 696.38 543.41 692.54 549.65 688.63 554.44 683.37 559.59 676.89 565.4 669.63 572.43 661.33 580.55 652.14 589.91 642.43 600.72 632.05 612.76 621.17 625.87 610.03 639.78 598.56 654.01 586.91 667.96 575.19 681.13 563.41 692.76 551.65 702.15 539.94 709.1 528.3 712.94 516.78 713.43 505.36 711.29 494.06 706.35 482.91 699.26 471.85 691.62 460.92 683.79 450.12 676.89 439.38 672.53 428.75 670.9 418.23 672.5 407.74 677.86 397.34 686.13 387.04 696.5 376.74 708.21 366.76 719.21 357.11 728.21 347.45 734.78 338.1 737.52 329.07 736.14 320.02 731.2 311.28 722.65 302.86 711.3 294.39 698.37 286.24 684.56 278.39 670.92 270.47 658.48 262.84 647.7 255.5 638.97 248.05 632.78 240.85 628.76 233.89 626.58 226.78 626.35 219.88 627.06 213.18 628.11 206.28 629.63 199.54 630.48 192.97 630.26 186.18 629.31 179.54 626.78 173.06 622.63 166.36 617.33 159.83 610.45 153.51 602.19 147.02 592.99 140.77 582.74 134.81 571.71 128.78 560.16 123.09 548.17 117.8 535.96 112.55 523.57 107.77 511.18 103.52 498.91 99.4 486.64 95.88 474.59 92.99 462.8 90.31 451.06 88.31 439.59 87.03 428.42 85.99 417.28 85.68 406.41 86.11 395.84 86.78 385.28 88.15 375.23 90.18 365.7 92.35 356.15 95.12 347.1 98.42 338.53 101.77 329.91 105.59 321.75 109.82 314 113.97 306.15 118.48 298.63 123.28 291.4 127.92 283.92 132.81 276.59 137.91 269.3 142.78 261.6 147.86 253.77 153.11 245.74 158.12 237.13 163.32 228.2 168.71 218.92 173.9 209.09 179.31 198.97 184.95 188.67 190.44 178.14 196.22 167.73 202.28 157.69 208.26 148.03 214.58 139.18 221.22 131.42 227.84 124.63 234.82 119.23 242.15 115.35 249.49 112.54 257.19 111.09 265.22 110.86 273.28 111.02 281.67 111.75 290.35 112.69 299.07 112.92 308.06 112.65 317.29 111.63 326.55 109.22 336.02 105.93 345.69 101.93 355.36 97.01 365.21 92.08 375.21 87.63" stroke-dasharray="8 25" transform="rotate(4.214285714285714, 400, 400)" opacity="0.53"></path><path d="M376.4 98.5C386.07 94.57 395.71 92.09 405.3 91.31 414.92 91.88 424.51 94.31 434.08 98.43 443.71 103.6 453.35 109.92 463.03 116.96 472.81 124.02 482.68 131.08 492.64 137.84 502.77 143.71 513.04 148.92 523.47 153.43 534.1 156.85 544.91 159.74 555.88 162.27 567.04 164.17 578.33 166.16 589.7 168.46 601.15 170.79 612.57 173.84 623.83 177.71 634.98 182.09 645.78 187.47 656.07 193.82 665.94 200.8 675.05 208.7 683.21 217.38 690.61 226.59 696.83 236.41 701.71 246.69 705.59 257.29 708 268.19 708.88 279.25 708.76 290.46 707.18 301.72 704.21 312.96 700.57 324.25 695.87 335.47 690.3 346.56 684.7 357.67 678.75 368.65 672.7 379.46 667.42 390.27 662.56 400.92 658.38 411.34 655.58 421.76 653.79 431.69 653.02 441.1 653.69 450.48 655.23 459.29 657.46 467.5 660.75 475.64 664.33 483.14 667.98 489.98 672.04 496.75 675.7 502.87 678.75 508.38 682.53 516.46 683.85 531.26 680.92 538.91 677.76 544.83 673.35 551.3 667.77 558.53 661.47 566.94 654.13 576.37 645.91 586.91 637.17 598.59 627.72 611.19 617.71 624.46 607.4 638.08 596.7 651.59 585.74 664.41 574.67 676.14 563.45 686.09 552.18 693.68 540.92 698.91 529.68 701.2 518.51 700.46 507.39 697.48 496.37 692.16 485.47 685.14 474.65 677.92 463.93 670.8 453.35 664.75 442.82 661.19 432.4 660.22 422.11 662.23 411.84 667.65 401.68 675.7 391.63 685.63 381.59 696.78 371.88 707.31 362.5 716.04 353.1 722.64 344.03 725.77 335.27 725.14 326.48 721.2 318 713.8 309.83 703.61 301.61 691.69 293.67 678.62 286.03 665.32 278.31 652.78 270.86 641.45 263.66 631.79 256.35 624.33 249.27 618.85 242.41 615.18 235.39 613.49 228.56 612.96 221.9 613.1 215.06 614.05 208.36 614.76 201.83 614.83 195.08 614.57 188.47 613.1 182.02 610.28 175.37 606.58 168.9 601.44 162.62 594.96 156.21 587.6 150.03 579.12 144.14 569.73 138.19 559.75 132.59 549.15 127.39 538.14 122.23 526.85 117.54 515.38 113.37 503.87 109.35 492.27 105.9 480.76 103.08 469.42 100.48 458.08 98.54 446.95 97.31 436.08 96.32 425.23 96.05 414.63 96.52 404.32 97.22 394 98.61 384.19 100.65 374.87 102.84 365.52 105.61 356.63 108.91 348.17 112.25 339.64 116.05 331.5 120.25 323.68 124.39 315.71 128.86 307.98 133.63 300.43 138.23 292.59 143.08 284.8 148.14 276.95 152.98 268.69 158.01 260.25 163.21 251.58 168.17 242.4 173.31 232.95 178.62 223.22 183.72 213.1 189.02 202.83 194.54 192.55 199.89 182.25 205.5 172.25 211.37 162.8 217.13 153.87 223.2 145.89 229.56 139.06 235.88 133.21 242.54 128.73 249.51 125.68 256.48 123.55 263.78 122.64 271.4 122.75 279.03 123.09 286.99 123.82 295.23 124.63 303.49 124.65 312.04 124.12 320.84 122.84 329.65 120.23 338.7 116.8 347.97 112.72 357.24 107.81 366.72 102.92 376.39 98.5" stroke-dasharray="24 24" transform="rotate(8.428571428571429, 400, 400)" opacity="0.55"></path><path d="M378.56 109.37C387.92 105.47 397.3 102.94 406.68 102.02 416.07 102.37 425.5 104.51 434.94 108.3 444.44 113.13 453.99 119.14 463.61 125.96 473.32 132.91 483.13 140 493.06 146.92 503.12 153.1 513.32 158.72 523.66 163.7 534.16 167.65 544.8 171.03 555.55 173.96 566.42 176.17 577.37 178.31 588.3 180.56 599.26 182.66 610.09 185.27 620.7 188.52 631.12 192.09 641.12 196.52 650.56 201.81 659.55 207.64 667.75 214.35 675 221.84 681.52 229.85 686.89 238.52 690.98 247.74 694.18 257.32 696 267.29 696.42 277.53 695.97 287.97 694.19 298.56 691.17 309.19 687.61 319.93 683.09 330.64 677.82 341.26 672.57 351.92 667.01 362.46 661.37 372.81 656.45 383.19 651.92 393.36 647.97 403.28 645.29 413.2 643.51 422.61 642.64 431.48 643.08 440.33 644.31 448.62 646.17 456.34 649.02 464.02 652.17 471.12 655.41 477.66 659.09 484.21 662.46 490.25 665.32 495.86 669.02 504.37 671.07 521.28 668.92 530.56 666.42 537.66 662.76 545.39 658.01 553.92 652.6 563.47 646.19 573.93 638.9 585.26 631.11 597.42 622.58 610.15 613.46 623.15 604.01 636.12 594.12 648.6 583.91 660.05 573.54 670.19 562.97 678.42 552.28 684.27 541.56 687.89 530.79 688.81 520.04 687.03 509.32 683.43 498.65 677.9 488.07 671.08 477.54 664.38 467.1 657.99 456.79 652.78 446.51 649.99 436.34 649.62 426.3 651.98 416.28 657.46 406.36 665.27 396.57 674.75 386.78 685.37 377.32 695.42 368.2 703.87 359.06 710.46 350.23 713.93 341.71 713.95 333.16 710.95 324.91 704.67 316.95 695.64 308.93 684.79 301.18 672.56 293.71 659.78 286.15 647.36 278.84 635.73 271.76 625.39 264.56 616.88 257.57 610.11 250.78 605.04 243.83 601.89 237.05 600.01 230.44 599.03 223.64 599.1 216.98 599.29 210.47 599.24 203.76 599.22 197.19 598.35 190.78 596.45 184.19 593.96 177.77 590.22 171.56 585.28 165.22 579.59 159.13 572.77 153.33 565 147.48 556.64 141.98 547.54 136.88 537.88 131.83 527.89 127.24 517.54 123.17 506.99 119.24 496.31 115.88 485.56 113.14 474.85 110.62 464.11 108.76 453.48 107.58 443.02 106.65 432.57 106.43 422.3 106.92 412.25 107.66 402.2 109.07 392.59 111.11 383.41 113.3 374.2 116.06 365.37 119.34 356.9 122.66 348.35 126.44 340.08 130.6 332.05 134.71 323.85 139.15 315.79 143.87 307.81 148.45 299.55 153.26 291.25 158.27 282.84 163.08 274.05 168.07 265.07 173.22 255.87 178.15 246.28 183.23 236.48 188.48 226.51 193.52 216.33 198.74 206.15 204.16 196.14 209.4 186.28 214.87 176.89 220.57 168.19 226.16 160.13 232.01 153.09 238.15 147.23 244.21 142.32 250.58 138.72 257.25 136.43 263.89 134.91 270.84 134.44 278.1 134.8 285.36 135.23 292.92 135.91 300.77 136.53 308.62 136.32 316.76 135.52 325.17 133.98 333.58 131.18 342.24 127.62 351.14 123.48 360.04 118.59 369.18 113.74 378.55 109.38" stroke-dasharray="20 8" transform="rotate(12.642857142857142, 400, 400)" opacity="0.82"></path><path d="M381.6 120.24C390.67 116.37 399.8 113.81 408.96 112.75 418.14 112.9 427.38 114.75 436.67 118.19 446.01 122.67 455.43 128.35 464.93 134.89 474.52 141.68 484.22 148.73 494.03 155.74 503.95 162.15 514 168.13 524.15 173.55 534.42 178.01 544.79 181.91 555.21 185.32 565.71 187.94 576.2 190.36 586.62 192.74 596.99 194.81 607.18 197.19 617.06 200.02 626.71 203 635.9 206.67 644.47 211.07 652.58 215.88 659.89 221.49 666.26 227.86 671.94 234.67 676.53 242.18 679.91 250.27 682.47 258.72 683.78 267.64 683.8 276.91 683.08 286.41 681.16 296.14 678.14 306 674.67 316 670.37 326.03 665.39 336.03 660.49 346.09 655.31 356.07 650.08 365.89 645.51 375.74 641.28 385.4 637.57 394.82 635.01 404.24 633.24 413.18 632.27 421.61 632.51 430.04 633.45 437.96 634.97 445.37 637.41 452.79 640.14 459.74 642.98 466.25 646.27 472.83 649.33 479.07 651.97 485.05 654.58 491.27 656.47 497.42 657.55 503.62 658.23 510.31 657.91 517.3 656.57 524.74 654.65 532.93 651.66 541.77 647.65 551.34 643.06 561.73 637.51 572.84 631.11 584.57 624.22 596.78 616.6 609.23 608.36 621.59 599.79 633.59 590.74 644.78 581.31 654.7 571.69 663.19 561.82 669.71 551.76 673.91 541.64 676.09 531.42 675.83 521.17 673.23 510.91 669.18 500.67 663.61 490.47 657.12 480.31 650.99 470.21 645.37 460.2 640.97 450.23 638.92 440.35 639.11 430.58 641.78 420.83 647.26 411.18 654.83 401.65 663.88 392.12 673.96 382.92 683.54 374.03 691.7 365.13 698.24 356.53 701.98 348.24 702.6 339.9 700.47 331.84 695.24 324.07 687.36 316.23 677.61 308.64 666.32 301.31 654.22 293.88 642.12 286.68 630.44 279.7 619.67 272.6 610.35 265.68 602.5 258.94 596.17 252.05 591.62 245.32 588.37 238.74 586.14 231.98 585.12 225.35 584.51 218.87 583.96 212.21 583.76 205.69 583.06 199.32 581.64 192.8 579.93 186.45 577.22 180.31 573.47 174.07 569.16 168.08 563.81 162.37 557.51 156.64 550.69 151.25 543.06 146.26 534.78 141.34 526.14 136.87 517.03 132.9 507.57 129.09 497.94 125.84 488.11 123.19 478.18 120.76 468.19 118.97 458.18 117.85 448.23 116.99 438.28 116.8 428.4 117.33 418.65 118.09 408.9 119.51 399.49 121.54 390.42 123.73 381.31 126.47 372.49 129.72 363.93 133.02 355.29 136.75 346.83 140.87 338.52 144.94 330.05 149.34 321.63 154.01 313.2 158.55 304.53 163.33 295.76 168.3 286.86 173.08 277.66 178.03 268.29 183.14 258.74 188.03 248.94 193.08 239.02 198.28 229.06 203.27 219.06 208.43 209.22 213.76 199.69 218.91 190.48 224.28 181.87 229.85 174.05 235.29 166.95 240.97 160.88 246.91 156.01 252.76 152 258.89 149.21 265.3 147.59 271.66 146.59 278.31 146.46 285.26 146.99 292.18 147.43 299.4 147.98 306.9 148.39 314.39 147.91 322.17 146.84 330.22 145.05 338.26 142.06 346.57 138.39 355.14 134.2 363.7 129.35 372.52 124.56 381.59 120.25" stroke-dasharray="6 19" transform="rotate(16.857142857142858, 400, 400)" opacity="0.91"></path><path d="M385.41 131.12C394.2 127.29 403.07 124.69 412 123.51 420.95 123.46 429.99 125.02 439.1 128.11 448.25 132.23 457.5 137.55 466.84 143.78 476.25 150.34 485.76 157.28 495.38 164.3 505.08 170.88 514.88 177.14 524.75 182.94 534.7 187.89 544.71 192.3 554.71 196.21 564.74 199.32 574.7 202.14 584.53 204.79 594.26 207 603.74 209.36 612.86 211.99 621.71 214.6 630.06 217.73 637.77 221.45 645.02 225.43 651.48 230.11 657.01 235.47 661.91 241.19 665.77 247.58 668.5 254.56 670.51 261.88 671.37 269.7 671.06 277.92 670.12 286.39 668.11 295.16 665.12 304.14 661.78 313.26 657.7 322.5 653.03 331.78 648.47 341.12 643.67 350.45 638.81 359.68 634.58 368.93 630.65 378.06 627.16 387 624.72 395.94 622.97 404.47 621.93 412.57 621.99 420.67 622.66 428.37 623.85 435.66 625.9 442.99 628.23 449.97 630.69 456.66 633.6 463.48 636.33 470.11 638.72 476.64 641.16 483.46 642.99 490.35 644.11 497.44 644.94 505.01 644.9 512.97 643.94 521.4 642.5 530.49 640.09 540.16 636.75 550.44 632.89 561.3 628.14 572.66 622.56 584.37 616.53 596.24 609.78 608.03 602.4 619.43 594.7 630.2 586.48 639.93 577.85 648.24 569.02 655.08 559.87 659.96 550.5 662.66 541.04 663.57 531.42 662.34 521.72 659.12 512 654.83 502.23 649.37 492.48 643.3 482.74 637.8 473.02 632.95 463.38 629.35 453.75 627.97 444.2 628.67 434.73 631.61 425.29 637.07 415.92 644.39 406.67 653.01 397.41 662.57 388.45 671.68 379.81 679.52 371.14 685.98 362.76 689.94 354.66 691.08 346.52 689.74 338.65 685.52 331.03 678.75 323.35 670.12 315.91 659.84 308.69 648.54 301.39 636.96 294.28 625.45 287.38 614.5 280.36 604.63 273.5 595.94 266.81 588.55 259.98 582.73 253.28 578.16 246.73 574.66 240.03 572.42 233.44 570.79 227 569.48 220.39 568.74 213.93 567.81 207.62 566.47 201.18 565.1 194.92 562.99 188.87 560.07 182.74 556.78 176.86 552.58 171.27 547.51 165.67 542.02 160.42 535.73 155.55 528.73 150.77 521.42 146.43 513.54 142.59 505.2 138.91 496.68 135.77 487.84 133.22 478.76 130.89 469.61 129.18 460.32 128.13 450.95 127.33 441.57 127.19 432.15 127.73 422.74 128.51 413.32 129.94 404.13 131.95 395.15 134.13 386.15 136.84 377.33 140.04 368.67 143.31 359.93 147 351.29 151.06 342.7 155.08 333.98 159.43 325.23 164.04 316.44 168.55 307.45 173.27 298.34 178.2 289.11 182.94 279.67 187.86 270.1 192.93 260.44 197.8 250.66 202.81 240.87 207.97 231.19 212.92 221.61 218.03 212.32 223.29 203.48 228.38 195.08 233.66 187.37 239.13 180.54 244.45 174.42 250 169.35 255.78 165.41 261.45 162.25 267.38 160.18 273.57 159.14 279.7 158.55 286.1 158.66 292.77 159.26 299.4 159.64 306.32 160.02 313.52 160.17 320.69 159.42 328.15 158.07 335.87 156.03 343.59 152.88 351.58 149.11 359.83 144.9 368.08 140.08 376.6 135.37 385.4 131.12" stroke-dasharray="11 15" transform="rotate(21.071428571428573, 400, 400)" opacity="0.14"></path><path d="M389.82 141.99C398.33 138.21 406.95 135.59 415.64 134.31 424.35 134.06 433.15 135.34 442.04 138.08 450.97 141.82 460 146.75 469.11 152.63 478.28 158.92 487.54 165.68 496.89 172.63 506.29 179.29 515.76 185.75 525.28 191.87 534.83 197.24 544.38 202.14 553.89 206.56 563.37 210.2 572.74 213.49 581.91 216.53 590.94 219.04 599.68 221.55 608.01 224.19 616.06 226.65 623.58 229.47 630.45 232.74 636.87 236.11 642.51 240.06 647.27 244.59 651.44 249.38 654.63 254.78 656.79 260.75 658.32 267 658.79 273.76 658.22 280.96 657.11 288.38 655.05 296.15 652.12 304.2 648.93 312.39 645.08 320.78 640.72 329.28 636.5 337.85 632.06 346.47 627.58 355.08 623.68 363.72 620.03 372.31 616.76 380.79 614.44 389.28 612.71 397.46 611.61 405.33 611.49 413.2 611.92 420.78 612.82 428.08 614.51 435.45 616.46 442.6 618.53 449.61 621.07 456.76 623.47 463.87 625.6 471.02 627.83 478.46 629.55 486.09 630.67 493.99 631.58 502.32 631.73 511.06 631.07 520.26 630.03 529.95 628.12 540.12 625.35 550.73 622.14 561.68 618.1 572.89 613.28 584.17 608.05 595.35 602.12 606.18 595.57 616.35 588.7 625.72 581.3 633.9 573.47 640.58 565.43 645.82 557.04 649.19 548.37 650.57 539.6 650.42 530.63 648.43 521.53 644.8 512.38 640.43 503.15 635.2 493.89 629.64 484.62 624.82 475.34 620.73 466.1 617.9 456.87 617.15 447.67 618.3 438.54 621.46 429.43 626.89 420.37 633.94 411.4 642.14 402.43 651.18 393.74 659.82 385.33 667.35 376.9 673.69 368.73 677.81 360.83 679.41 352.88 678.79 345.18 675.5 337.71 669.8 330.18 662.29 322.87 653.06 315.76 642.67 308.56 631.76 301.55 620.62 294.71 609.74 287.77 599.59 280.97 590.3 274.33 582.07 267.56 575.18 260.91 569.42 254.4 564.7 247.75 561.2 241.22 558.44 234.83 556.17 228.3 554.63 221.9 553.16 215.67 551.54 209.34 550.1 203.18 548.2 197.23 545.7 191.23 543.04 185.48 539.64 180.03 535.49 174.58 531.04 169.48 525.85 164.76 519.97 160.13 513.82 155.94 507.07 152.23 499.79 148.69 492.35 145.68 484.48 143.23 476.28 141.01 467.99 139.39 459.44 138.41 450.7 137.67 441.94 137.57 433.02 138.14 423.98 138.94 414.95 140.35 406 142.35 397.16 144.5 388.31 147.17 379.52 150.32 370.8 153.54 362.02 157.16 353.25 161.16 344.47 165.13 335.58 169.41 326.64 173.96 317.62 178.41 308.46 183.09 299.2 187.96 289.85 192.67 280.38 197.55 270.86 202.57 261.34 207.41 251.83 212.4 242.42 217.51 233.25 222.44 224.3 227.51 215.76 232.72 207.78 237.76 200.31 242.97 193.59 248.35 187.77 253.59 182.65 259.03 178.54 264.67 175.47 270.21 173.07 275.98 171.62 281.98 171.04 287.91 170.75 294.09 170.99 300.53 171.58 306.92 171.84 313.58 172 320.51 171.86 327.4 170.83 334.57 169.2 342.01 166.93 349.43 163.63 357.12 159.78 365.09 155.56 373.05 150.8 381.29 146.16 389.81 141.99" stroke-dasharray="11 34" transform="rotate(25.285714285714285, 400, 400)" opacity="0.18"></path><path d="M394.65 152.86C402.89 149.14 411.24 146.51 419.67 145.12 428.12 144.7 436.66 145.71 445.29 148.1 453.95 151.46 462.71 155.98 471.54 161.48 480.41 167.44 489.36 173.95 498.36 180.76 507.39 187.41 516.47 193.99 525.54 200.33 534.62 206.06 543.66 211.39 552.6 216.29 561.48 220.46 570.19 224.26 578.67 227.76 586.98 230.68 594.95 233.5 602.49 236.32 609.74 238.84 616.44 241.58 622.5 244.61 630.57 249.34 641.86 261.36 644.81 268.78 645.92 274.09 646.07 279.9 645.29 286.16 644.06 292.6 642 299.43 639.16 306.58 636.13 313.86 632.53 321.39 628.48 329.11 624.59 336.9 620.51 344.82 616.38 352.82 612.79 360.84 609.41 368.91 606.35 376.98 604.15 385.06 602.46 392.94 601.3 400.63 601.04 408.33 601.25 415.87 601.87 423.27 603.22 430.73 604.81 438.12 606.53 445.48 608.7 453 610.77 460.59 612.63 468.31 614.62 476.3 616.2 484.54 617.26 493.07 618.19 501.96 618.47 511.22 618.04 520.85 617.31 530.81 615.8 541.11 613.53 551.65 610.88 562.32 607.47 573 603.33 583.52 598.83 593.7 593.65 603.33 587.88 612.1 581.8 619.98 575.2 626.59 568.15 631.69 560.88 635.45 553.25 637.48 545.3 637.73 537.24 636.73 528.94 634.2 520.46 630.35 511.93 626.05 503.27 621.18 494.53 616.2 485.78 612.07 476.98 608.74 468.18 606.62 459.37 606.45 450.58 608.01 441.81 611.35 433.06 616.71 424.33 623.49 415.67 631.26 407 639.81 398.58 647.98 390.41 655.18 382.23 661.37 374.28 665.6 366.56 667.59 358.82 667.6 351.28 665.18 343.96 660.5 336.58 654.08 329.38 645.94 322.38 636.52 315.29 626.41 308.37 615.83 301.61 605.23 294.74 595.05 288.02 585.44 281.43 576.63 274.73 568.89 268.14 562.12 261.69 556.3 255.11 551.62 248.65 547.7 242.33 544.39 235.89 541.87 229.6 539.62 223.46 537.43 217.25 535.6 211.22 533.54 205.4 531.1 199.55 528.68 193.96 525.7 188.65 522.13 183.38 518.39 178.44 514.01 173.88 508.99 169.42 503.78 165.39 497.98 161.83 491.62 158.44 485.13 155.57 478.16 153.24 470.78 151.13 463.32 149.61 455.51 148.69 447.39 148.01 439.26 147.96 430.87 148.54 422.24 149.35 413.62 150.76 404.97 152.72 396.33 154.84 387.68 157.47 379 160.55 370.31 163.7 361.58 167.26 352.8 171.17 343.96 175.08 335.06 179.29 326.08 183.76 317.02 188.15 307.9 192.77 298.7 197.57 289.47 202.23 280.23 207.07 271 212.05 261.87 216.85 252.86 221.8 244.07 226.88 235.61 231.77 227.47 236.81 219.83 241.98 212.82 246.98 206.35 252.13 200.65 257.44 195.85 262.61 191.69 267.97 188.45 273.5 186.17 281.74 183.94 299.18 183.26 308.42 183.9 314.6 183.98 321.04 183.88 327.73 183.44 334.38 182.12 341.29 180.23 348.47 177.75 355.62 174.32 363.05 170.41 370.74 166.18 378.42 161.49 386.39 156.95 394.64 152.87" stroke-dasharray="22 2" transform="rotate(29.5, 400, 400)" opacity="0.17"></path><path d="M399.7 163.73C407.66 160.09 415.73 157.45 423.88 155.97 432.04 155.38 440.3 156.13 448.63 158.18 456.98 161.15 465.42 165.26 473.91 170.33 482.42 175.93 491 182.13 499.59 188.72 508.19 195.28 516.8 201.87 525.37 208.35 533.92 214.35 542.38 220.03 550.7 225.36 558.94 230.03 566.97 234.34 574.72 238.33 582.3 241.74 589.5 244.97 596.26 248.11 602.72 250.87 608.64 253.71 613.93 256.73 620.9 261.2 630.33 271.93 632.58 278.41 633.28 285.5 629.98 302.07 626.25 311.41 623.4 317.84 620.05 324.59 616.31 331.59 612.74 338.63 609 345.89 605.21 353.32 601.92 360.76 598.8 368.34 595.95 376.04 593.86 383.73 592.21 391.36 591.02 398.91 590.62 406.48 590.63 414.01 591 421.51 592.05 429.08 593.3 436.69 594.67 444.37 596.49 452.18 598.23 460.15 599.8 468.31 601.55 476.69 602.95 485.32 603.91 494.23 604.82 503.4 605.16 512.85 604.88 522.57 604.39 532.46 603.2 542.51 601.34 552.61 599.17 562.65 596.3 572.49 592.76 581.96 588.91 590.94 584.42 599.2 579.36 606.5 574.03 612.86 568.18 617.95 561.87 621.57 555.36 624.01 548.46 624.91 541.23 624.25 533.88 622.62 526.26 619.74 518.42 615.84 510.52 611.76 502.46 607.34 494.28 602.99 486.07 599.56 477.78 596.96 469.44 595.52 461.1 595.88 452.73 597.78 444.36 601.26 435.99 606.53 427.62 613.04 419.28 620.39 410.94 628.44 402.81 636.16 394.9 643.02 386.97 649.03 379.25 653.33 371.73 655.63 364.19 656.21 356.83 654.57 349.65 650.84 342.43 645.47 335.37 638.41 328.47 630.02 321.51 620.82 314.68 610.96 308 600.83 301.24 590.86 294.59 581.18 288.08 572.05 281.46 563.72 274.96 556.17 268.58 549.44 262.1 543.7 255.73 538.7 249.5 534.33 243.19 530.77 237.01 527.6 231 524.65 224.93 522.18 219.05 519.66 213.38 516.97 207.71 514.44 202.29 511.55 197.15 508.21 192.07 504.85 187.31 500.96 182.93 496.52 178.66 491.98 174.8 486.88 171.4 481.26 168.17 475.54 165.44 469.33 163.24 462.67 161.25 455.94 159.82 448.81 158.98 441.3 158.37 433.78 158.35 425.91 158.95 417.73 159.76 409.55 161.15 401.26 163.08 392.89 165.16 384.52 167.72 376.05 170.73 367.51 173.81 358.96 177.29 350.31 181.11 341.59 184.93 332.85 189.06 324.03 193.44 315.16 197.76 306.29 202.3 297.39 207.02 288.52 211.63 279.73 216.41 271.03 221.33 262.53 226.1 254.22 231.01 246.22 236.04 238.65 240.91 231.44 245.91 224.79 251.03 218.81 256 213.35 261.1 208.67 266.35 204.82 274.11 200.31 290.29 195.94 298.77 195.63 304.4 195.62 310.25 195.86 316.32 196.19 322.32 196.03 328.56 195.64 335.04 194.89 341.48 193.28 348.16 191.15 355.1 188.46 362 184.92 369.17 180.97 376.61 176.77 384.03 172.17 391.72 167.73 399.69 163.74" stroke-dasharray="12 2" transform="rotate(33.714285714285715, 400, 400)" opacity="0.53"></path><path d="M404.76 174.61C412.44 171.04 420.21 168.41 428.05 166.86 435.9 166.11 443.84 166.6 451.83 168.32 459.84 170.9 467.9 174.59 476 179.23 484.12 184.42 492.26 190.26 500.39 196.56 508.51 202.94 516.6 209.45 524.62 215.95 532.59 222.12 540.44 228.07 548.11 233.73 555.67 238.84 563 243.63 570.02 248.11 576.86 252.03 583.31 255.73 589.3 259.28 597.6 263.96 610.72 273.22 615.29 278.19 618.49 283.36 620.46 295.53 619.26 302.62 617.93 307.54 615.96 312.85 613.39 318.52 610.73 324.25 607.64 330.32 604.21 336.68 600.95 343.08 597.54 349.75 594.08 356.66 591.07 363.58 588.2 370.72 585.54 378.07 583.57 385.43 581.97 392.82 580.74 400.24 580.24 407.67 580.08 415.17 580.22 422.74 580.98 430.36 581.92 438.11 582.97 445.99 584.44 453.98 585.87 462.16 587.16 470.54 588.64 479.08 589.84 487.85 590.68 496.84 591.51 505.97 591.86 515.29 591.68 524.74 591.34 534.21 590.41 543.68 588.86 553.02 587.08 562.14 584.67 570.91 581.65 579.13 578.38 586.78 574.51 593.6 570.09 599.41 565.44 604.32 560.28 607.99 554.67 610.32 548.88 611.63 542.68 611.59 536.15 610.25 529.49 608.2 522.54 605.16 515.35 601.39 508.09 597.63 500.63 593.73 493.03 590.04 485.38 587.31 477.62 585.4 469.77 584.59 461.92 585.41 454 587.62 446.04 591.2 438.09 596.36 430.1 602.57 422.1 609.52 414.1 617.09 406.28 624.35 398.64 630.86 390.99 636.68 383.51 640.99 376.2 643.54 368.87 644.6 361.7 643.67 354.69 640.82 347.63 636.46 340.72 630.46 333.95 623.11 327.12 614.88 320.41 605.86 313.83 596.38 307.18 586.83 300.64 577.33 294.22 568.13 287.72 559.49 281.32 551.42 275.04 544 268.68 537.39 262.44 531.46 256.34 526.13 250.16 521.56 244.14 517.43 238.28 513.63 232.38 510.36 226.67 507.19 221.18 504.01 215.71 501.1 210.48 497.99 205.54 494.6 200.66 491.29 196.1 487.58 191.91 483.45 187.84 479.28 184.17 474.65 180.94 469.54 177.89 464.38 175.3 458.75 173.23 452.67 171.37 446.55 170.04 440 169.27 433.05 168.72 426.08 168.74 418.72 169.35 411.01 170.17 403.29 171.54 395.41 173.41 387.39 175.44 379.38 177.94 371.23 180.86 362.99 183.86 354.74 187.25 346.4 190.96 337.98 194.69 329.58 198.72 321.13 203 312.66 207.23 304.25 211.68 295.87 216.31 287.59 220.85 279.45 225.56 271.48 230.41 263.78 235.13 256.33 239.98 249.26 244.96 242.67 249.79 236.46 254.75 230.83 259.82 225.88 264.75 221.41 269.81 217.66 275.01 214.69 282.68 211.27 298.62 208.27 306.93 208.19 312.45 208.16 318.17 208.27 324.08 208.38 329.93 207.95 336 207.26 342.28 206.19 348.52 204.31 355 201.94 361.7 199.08 368.38 195.46 375.31 191.49 382.49 187.33 389.65 182.83 397.07 178.5 404.75 174.61" stroke-dasharray="32 16" transform="rotate(37.92857142857143, 400, 400)" opacity="0.79"></path><path d="M409.63 185.48C417.01 182 424.46 179.39 431.97 177.77 439.49 176.88 447.06 177.14 454.68 178.54 462.3 180.74 469.96 183.99 477.63 188.18 485.3 192.93 492.96 198.37 500.58 204.31 508.18 210.42 515.72 216.77 523.14 223.2 530.5 229.41 537.71 235.51 544.71 241.42 551.6 246.88 558.22 252.08 564.52 257 570.63 261.42 576.35 265.61 581.61 269.61 588.86 274.93 600.07 284.98 603.82 290.07 606.38 295.14 607.54 306.57 606.21 313.08 603.94 319.95 596.72 335.47 592.17 344.08 589.22 349.94 586.12 356.12 582.97 362.59 580.23 369.05 577.6 375.81 575.14 382.84 573.28 389.88 571.73 397.03 570.49 404.29 569.89 411.57 569.57 418.98 569.51 426.52 570.01 434.1 570.66 441.85 571.42 449.76 572.57 457.75 573.68 465.93 574.69 474.29 575.91 482.73 576.9 491.35 577.58 500.11 578.3 508.9 578.61 517.77 578.47 526.63 578.23 535.39 577.47 544 576.18 552.34 574.71 560.34 572.67 567.87 570.09 574.74 565.63 583.71 553.81 595.58 546.59 598.01 541.46 598.41 535.94 597.67 530.06 595.86 524.07 593.58 517.77 590.57 511.22 587.05 504.59 583.71 497.74 580.39 490.7 577.37 483.63 575.32 476.41 574.06 469.07 573.82 461.72 575.07 454.27 577.52 446.75 581.16 439.22 586.19 431.64 592.11 424.01 598.64 416.38 605.74 408.88 612.56 401.53 618.71 394.18 624.31 386.96 628.59 379.88 631.34 372.79 632.8 365.82 632.49 358.99 630.44 352.13 627.02 345.38 622.05 338.76 615.75 332.08 608.53 325.52 600.43 319.07 591.73 312.56 582.78 306.15 573.69 299.85 564.67 293.49 555.98 287.23 547.65 281.08 539.79 274.88 532.57 268.79 525.89 262.84 519.76 256.84 514.29 250.99 509.27 245.31 504.62 239.61 500.5 234.1 496.58 228.82 492.77 223.56 489.29 218.55 485.76 213.82 482.08 207 476.67 195.25 464.44 190.47 457.43 187.59 452.61 185.16 447.37 183.23 441.73 181.49 436.06 180.26 429.99 179.57 423.52 179.08 417.03 179.14 410.16 179.76 402.91 180.57 395.67 181.91 388.23 183.74 380.65 185.71 373.07 188.13 365.36 190.95 357.53 193.86 349.73 197.14 341.85 200.74 333.91 204.36 326.02 208.27 318.12 212.43 310.25 216.56 302.48 220.91 294.8 225.44 287.29 229.89 279.95 234.51 272.85 239.28 266.08 243.93 259.58 248.72 253.5 253.63 247.93 258.41 242.73 263.31 238.1 268.33 234.12 275.72 229.1 290.94 222.89 298.8 221.54 306.65 220.84 323.03 220.64 331.59 220.43 337.3 219.71 343.21 218.71 349.31 217.32 355.37 215.19 361.64 212.61 368.13 209.6 374.59 205.92 381.27 201.96 388.19 197.85 395.09 193.46 402.23 189.27 409.62 185.49" stroke-dasharray="5 10" transform="rotate(42.142857142857146, 400, 400)" opacity="0.38"></path><path d="M414.09 196.35C421.16 192.97 428.28 190.39 435.43 188.72 442.59 187.7 449.78 187.74 456.99 188.83 464.2 190.66 471.42 193.49 478.61 197.22 485.8 201.51 492.95 206.49 500.03 212.03 507.08 217.8 514.03 223.88 520.84 230.14 527.58 236.29 534.14 242.43 540.47 248.46 546.68 254.16 552.61 259.67 558.2 264.95 563.62 269.8 568.65 274.44 573.23 278.89 579.5 284.9 588.98 296.04 592.03 301.46 594.04 306.71 594.57 318 593.17 324.22 590.99 330.67 584.34 345.13 580.21 353.17 577.54 358.62 574.75 364.4 571.9 370.5 569.42 376.6 567.01 383.01 564.73 389.75 562.99 396.48 561.49 403.38 560.25 410.43 559.57 417.5 559.12 424.73 558.89 432.12 559.15 439.54 559.54 447.13 560.02 454.88 560.87 462.67 561.69 470.62 562.43 478.69 563.38 486.79 564.14 494.99 564.65 503.22 565.23 511.41 565.46 519.55 565.32 527.57 565.12 535.39 564.47 542.95 563.36 550.11 561.26 560 554.35 575.57 549.57 580.7 544.07 583.79 530.74 583.9 523.03 581.24 517.66 578.92 511.99 576.07 506.04 572.92 500.02 570.07 493.76 567.36 487.3 565.01 480.8 563.6 474.12 562.95 467.29 563.23 460.45 564.82 453.48 567.47 446.41 571.15 439.33 576.01 432.16 581.64 424.92 587.77 417.67 594.4 410.53 600.78 403.49 606.58 396.45 611.93 389.52 616.14 382.69 619.02 375.86 620.82 369.12 621.04 362.5 619.71 355.85 617.16 349.3 613.15 342.85 607.87 336.37 601.69 329.97 594.57 323.68 586.75 317.35 578.55 311.1 570.04 304.96 561.42 298.77 552.93 292.68 544.61 286.7 536.59 280.69 529.01 274.78 521.84 269.02 515.11 263.23 508.92 257.58 503.14 252.11 497.74 246.64 492.82 241.36 488.15 236.3 483.67 231.28 479.53 226.51 475.45 222.01 471.34 215.55 465.42 204.46 452.82 199.97 445.92 196.15 438.75 191.05 422.67 189.87 413.75 189.45 407.67 189.54 401.23 190.16 394.45 190.97 387.67 192.28 380.72 194.04 373.63 195.95 366.55 198.28 359.35 201 352.07 203.8 344.82 206.96 337.52 210.43 330.21 213.94 322.97 217.72 315.76 221.75 308.64 225.76 301.64 229.98 294.79 234.39 288.16 238.74 281.71 243.25 275.56 247.91 269.77 252.48 264.25 257.19 259.17 262.01 254.6 269.14 248.49 283.8 239.64 291.33 236.91 298.82 235.05 314.29 233.54 322.3 233.42 330.35 232.94 347.16 230.61 355.96 228.28 361.84 225.91 367.92 223.15 374.18 220.02 380.43 216.31 386.87 212.37 393.52 208.34 400.16 204.08 407.02 200.02 414.08 196.36" stroke-dasharray="12 11" transform="rotate(46.357142857142854, 400, 400)" opacity="0.48"></path><path d="M417.98 207.23C424.71 203.94 431.47 201.4 438.24 199.7 445.02 198.57 451.8 198.4 458.57 199.21 465.34 200.68 472.09 203.09 478.79 206.36 485.47 210.17 492.09 214.68 498.61 219.76 505.09 225.13 511.45 230.86 517.63 236.84 523.75 242.82 529.67 248.88 535.33 254.91 540.88 260.73 546.15 266.42 551.07 271.96 555.83 277.15 560.21 282.17 564.16 287.01 569.54 293.68 577.49 306.02 579.95 311.91 581.5 317.53 581.56 329.14 580.14 335.32 578.1 341.62 572.03 355.49 568.32 363.13 565.93 368.31 563.43 373.79 560.86 379.59 558.62 385.38 556.43 391.49 554.33 397.93 552.7 404.36 551.26 410.98 550.02 417.75 549.28 424.54 548.72 431.5 548.33 438.6 548.38 445.72 548.54 452.99 548.77 460.38 549.34 467.77 549.89 475.27 550.37 482.82 551.06 490.35 551.59 497.89 551.92 505.37 552.33 512.73 552.46 519.96 552.27 526.95 551.77 536.89 548.67 554 545.99 560.67 538.2 568.36 521.97 569.38 515.11 566.52 510.33 564.31 505.23 561.76 499.86 559.05 494.42 556.75 488.74 554.65 482.83 552.95 476.88 552.16 470.73 552.06 464.42 552.79 458.09 554.68 451.61 557.48 444.99 561.15 438.38 565.84 431.64 571.16 424.8 576.9 417.96 583.08 411.18 589.02 404.48 594.46 397.78 599.54 391.15 603.65 384.61 606.61 378.06 608.66 371.59 609.34 365.2 608.64 358.8 606.87 352.47 603.77 346.23 599.46 339.97 594.29 333.78 588.17 327.68 581.3 321.55 573.96 315.51 566.19 309.56 558.16 303.58 550.09 297.7 542.03 291.92 534.09 286.13 526.42 280.44 519.02 274.9 511.95 269.35 505.27 263.94 498.94 258.71 492.94 253.49 487.35 248.46 482.02 243.66 476.92 238.9 472.14 234.38 467.48 230.14 462.88 224.05 456.3 213.66 442.95 209.48 435.95 205.93 428.81 201.24 413.27 200.18 404.8 199.82 399.06 199.95 393.02 200.57 386.69 201.36 380.36 202.63 373.9 204.33 367.34 206.16 360.8 208.4 354.17 211 347.52 213.7 340.9 216.72 334.27 220.06 327.69 223.42 321.18 227.06 314.75 230.94 308.47 234.81 302.31 238.9 296.35 243.17 290.65 247.39 285.14 251.79 279.94 256.32 275.12 260.78 270.54 265.38 266.4 270.1 262.73 277.1 257.87 291.5 251.06 298.9 249.04 306.28 247.62 321.47 246.27 329.32 245.91 337.19 245.05 353.58 241.8 362.11 239.04 367.81 236.46 373.69 233.55 379.73 230.34 385.75 226.62 391.94 222.73 398.32 218.8 404.68 214.67 411.24 210.76 417.97 207.23" stroke-dasharray="15 35" transform="rotate(50.57142857142857, 400, 400)" opacity="0.94"></path><path d="M421.12 218.1C427.5 214.93 433.89 212.44 440.26 210.71 446.63 209.49 452.98 209.14 459.3 209.67 471.91 212.57 484.31 218.76 496.24 227.55 508.02 237.61 519.14 248.98 529.3 260.87 539.04 272.26 547.53 283.36 554.47 293.91 560.7 303.31 565.16 312.28 567.64 321.01 569.37 328.9 569.19 337.02 567.17 345.64 564.85 353.89 561.19 362.98 556.5 373.05 554.38 378.04 552.15 383.31 549.84 388.86 547.84 394.4 545.85 400.23 543.93 406.36 542.4 412.49 541.03 418.79 539.81 425.22 539.02 431.65 538.37 438.23 537.85 444.92 537.96 458.3 538.28 472.05 538.52 485.81 539.58 499.29 539.96 512.34 539.39 524.34 538.88 535.3 537 544.41 533.64 550.97 529.95 555.75 524.69 557.58 517.96 556.45 510.85 554.24 502.39 550.26 492.77 545.53 482.93 542.62 472.1 541.29 460.5 542.51 454.67 544.64 448.68 547.54 442.53 551.17 436.37 555.66 430.07 560.67 423.65 566.03 417.23 571.76 410.84 577.28 404.5 582.36 398.16 587.16 391.87 591.13 385.63 594.12 373.15 597.74 360.87 596.43 348.9 590.49 336.87 581.35 325.09 568.97 313.67 554.65 302.2 539.67 291.09 524.51 280.51 509.96 269.96 496.48 260.02 484.02 250.9 472.54 242.01 462.17 234.11 452.28 227.43 442.54 221.22 433.31 216.42 423.69 213.24 413.47 211.43 405.76 210.28 389.33 210.97 380.58 211.75 374.67 212.97 368.7 214.6 362.7 216.35 356.7 218.49 350.69 220.97 344.69 226.18 332.81 232.62 321.2 240.02 310.24 247.45 299.74 255.67 290.26 264.49 282.22 273.1 274.93 282.23 269.31 291.75 265.51 300.98 262.24 310.65 260.41 320.68 259.71 330.45 258.36 340.7 257.08 351.39 255.32 361.91 251.53 372.99 246.58 384.61 240.55 390.39 236.85 396.33 233.04 402.41 229.22 408.49 225.25 414.73 221.5 421.11 218.1" stroke-dasharray="13 5" transform="rotate(54.785714285714285, 400, 400)" opacity="0.67"></path><path d="M423.39 228.97C435.42 223.19 447.35 220.19 459.05 220.24 470.71 222.44 482.06 227.69 492.86 235.46 503.51 244.55 513.44 255.11 522.38 266.44 530.95 277.62 538.31 288.78 544.21 299.62 549.51 309.58 553.2 319.18 555.13 328.49 556.48 337.04 556.17 345.66 554.25 354.54 552.17 363.04 548.92 372.15 544.76 381.99 541.21 391.72 537.37 402.38 533.52 414 531.06 425.63 529.03 437.71 527.44 450.06 527.19 462.35 527.08 474.75 526.89 486.88 527.48 498.64 527.49 509.68 526.71 519.45 525.19 531.68 515.63 543.1 507.32 541.71 501.05 539.5 493.52 536.1 484.88 532.41 476.05 530.62 466.23 530.37 455.61 532.37 444.92 537.86 433.51 545.72 421.53 555.15 409.55 565.91 397.59 575.13 385.8 581.55 374 585.57 362.33 585.32 350.91 580.95 339.46 573.7 328.23 563.25 317.35 550.68 306.45 537.1 295.91 522.87 285.89 508.76 275.94 495.23 266.6 482.38 258.07 470.33 249.78 459.16 242.44 448.53 236.27 438.24 230.55 428.45 226.15 418.56 223.26 408.43 220.99 398.41 220.31 387.89 221.38 376.89 223.04 365.88 226.29 354.91 230.9 344.22 235.84 333.64 241.95 323.54 248.99 314.24 256.09 305.32 263.97 297.49 272.43 291.03 280.75 285.11 289.58 280.65 298.81 277.72 307.8 274.98 317.21 273.33 326.95 272.42 336.48 270.68 346.43 268.81 356.76 266.39 366.95 262.1 377.62 256.81 388.72 250.66 399.78 243.09 411.35 235.56 423.38 228.98" stroke-dasharray="17 9" transform="rotate(59, 400, 400)" opacity="0.28"></path><path d="M424.69 239.84C435.95 234.29 447.02 231.23 457.76 230.91 468.47 232.46 478.77 236.81 488.47 243.53 498.02 251.58 506.81 261.2 514.63 271.76 522.12 282.45 528.46 293.39 533.44 304.22 537.95 314.47 541 324.46 542.5 334.18 543.57 343.28 543.19 352.35 541.42 361.5 539.6 370.3 536.75 379.48 533.09 389.15 530 398.72 526.61 408.96 523.12 419.9 520.82 430.84 518.8 441.99 517.09 453.14 516.54 464.22 516.06 475.13 515.49 485.5 515.63 495.49 515.29 504.55 514.29 512.23 512.61 521.56 503.81 528.84 496.37 526.92 490.81 524.99 484.09 522.34 476.33 519.73 468.41 519.01 459.54 519.73 449.86 522.38 440.11 527.99 429.62 535.52 418.52 544.28 407.41 554.18 396.25 562.73 385.17 568.92 374.1 573.2 363.11 573.83 352.32 570.85 341.52 565.33 330.92 556.79 320.64 546.05 310.39 534.11 300.48 521.16 291.08 507.93 281.79 494.86 273.1 482.11 265.18 469.94 257.52 458.37 250.76 447.31 245.11 436.69 239.88 426.48 235.89 416.4 233.31 406.36 231.27 396.44 230.72 386.34 231.78 376.07 233.39 365.81 236.46 355.87 240.8 346.42 245.46 337.06 251.22 328.35 257.86 320.54 264.6 313 272.09 306.54 280.15 301.34 288.12 296.46 296.61 292.83 305.47 290.4 314.17 287.9 323.26 286.17 332.65 284.89 341.88 282.66 351.48 280.17 361.4 277.12 371.22 272.41 381.43 266.86 391.98 260.67 402.5 253.31 413.43 246.11 424.69 239.84" stroke-dasharray="15 30" transform="rotate(63.214285714285715, 400, 400)" opacity="0.16"></path><path d="M424.97 250.72C435.43 245.42 445.62 242.34 455.41 241.68 465.16 242.64 474.44 246.13 483.08 251.82 491.58 258.79 499.32 267.35 506.11 276.97 512.62 286.95 518.05 297.38 522.25 307.9 526.07 318.12 528.61 328.22 529.78 338.11 530.65 347.54 530.26 356.89 528.69 366.21 527.12 375.23 524.67 384.45 521.49 393.92 518.83 403.3 515.85 413.1 512.71 423.31 510.58 433.52 508.6 443.66 506.81 453.56 506.01 463.36 505.21 472.74 504.31 481.39 503.72 493.31 500.26 509.73 496.62 513.26 491.97 514.19 477.26 509.96 467.28 507.54 460.19 507.8 452.19 509.35 443.39 512.51 434.54 518.16 424.96 525.32 414.74 533.41 404.52 542.46 394.18 550.35 383.87 556.24 373.58 560.65 363.31 561.98 353.22 560.19 343.14 556.24 333.23 549.51 323.63 540.61 314.08 530.44 304.86 519.03 296.14 507.03 287.56 494.85 279.54 482.68 272.27 470.84 265.26 459.33 259.1 448.21 253.97 437.55 249.24 427.19 245.66 417.09 243.37 407.24 241.58 397.48 241.14 387.8 242.19 378.24 243.72 368.68 246.61 359.68 250.66 351.34 255.02 343.05 260.41 335.54 266.64 328.95 272.97 322.52 280.04 317.12 287.66 312.84 295.23 308.67 303.31 305.51 311.76 303.27 320.09 300.76 328.79 298.74 337.78 296.96 346.65 294.19 355.84 291.1 365.29 287.5 374.67 282.44 384.37 276.73 394.33 270.57 404.26 263.48 414.5 256.65 424.97 250.72" stroke-dasharray="12 11" transform="rotate(67.42857142857143, 400, 400)" opacity="0.26"></path><path d="M424.21 261.59C433.86 256.56 443.16 253.5 452 252.56 460.81 252.99 469.11 255.68 476.75 260.37 484.27 266.24 491.04 273.68 496.9 282.24 502.54 291.29 507.19 300.96 510.72 310.9 513.98 320.76 516.1 330.64 517.03 340.41 517.77 349.89 517.44 359.29 516.07 368.58 514.78 377.66 512.7 386.79 509.98 395.97 507.71 405.09 505.12 414.39 502.31 423.82 500.34 433.25 498.42 442.36 496.59 451 495.59 459.56 494.53 467.5 493.35 474.58 490.23 490.41 480.24 499.48 474.08 498 469.6 497.24 464.19 496.37 457.91 495.86 451.55 496.99 444.36 499.23 436.4 502.78 428.4 508.37 419.69 515.12 410.35 522.54 401.01 530.77 391.52 537.98 382.01 543.52 372.53 547.95 363.06 549.8 353.71 549 344.41 546.42 335.25 541.34 326.39 534.22 317.59 525.87 309.12 516.15 301.13 505.62 293.28 494.7 285.97 483.51 279.37 472.4 273.02 461.4 267.47 450.64 262.87 440.27 258.64 430.08 255.45 420.19 253.45 410.67 251.89 401.22 251.57 392.01 252.59 383.12 254.05 374.23 256.74 366.06 260.5 358.65 264.54 351.27 269.54 344.71 275.33 339.05 281.23 333.46 287.83 328.79 294.96 325.07 302.09 321.29 309.71 318.31 317.68 316 325.58 313.27 333.83 310.84 342.34 308.49 350.77 305.19 359.49 301.57 368.42 297.5 377.29 292.21 386.43 286.43 395.75 280.38 405.05 273.61 414.57 267.16 424.21 261.59" stroke-dasharray="18 32" transform="rotate(71.64285714285714, 400, 400)" opacity="0.34"></path><path d="M422.46 272.46C431.26 267.73 439.68 264.72 447.6 263.56 455.5 263.53 462.86 265.48 469.57 269.22 476.18 274.02 482.06 280.3 487.11 287.71 491.98 295.69 495.95 304.39 498.94 313.49 501.73 322.69 503.53 332.05 504.31 341.39 504.97 350.61 504.72 359.77 503.59 368.8 502.55 377.7 500.83 386.55 498.53 395.31 496.64 404.04 494.4 412.74 491.9 421.36 490.1 429.97 488.26 438.07 486.42 445.54 484.64 456.26 481.11 473.11 478.85 478.68 472.61 483.83 456.51 484.27 448.41 484.71 442.7 486.58 436.23 489.36 429.06 493.16 421.86 498.6 414 504.91 405.53 511.66 397.07 519.09 388.44 525.63 379.77 530.78 371.13 535.11 362.48 537.31 353.94 537.31 345.45 535.89 337.1 532.28 329.02 526.81 321.02 520.22 313.33 512.24 306.1 503.32 299.01 493.9 292.43 484 286.52 473.96 280.84 463.86 275.89 453.83 271.83 444.07 268.08 434.39 265.28 424.99 263.57 415.96 262.23 406.99 262.01 398.34 262.99 390.1 264.37 381.87 266.85 374.42 270.31 367.77 274.02 361.11 278.62 355.27 283.94 350.26 289.39 345.23 295.49 340.99 302.09 337.52 308.73 333.89 315.82 330.84 323.26 328.26 330.66 325.2 338.4 322.29 346.37 319.38 354.29 315.6 362.46 311.53 370.81 307.1 379.12 301.69 387.64 295.95 396.27 290.08 404.89 283.69 413.66 277.66 422.46 272.46" stroke-dasharray="23 11" transform="rotate(75.85714285714286, 400, 400)" opacity="0.37"></path><path d="M419.78 283.34C427.73 278.92 435.27 276 442.31 274.66 449.33 274.25 455.81 275.54 461.66 278.41 467.43 282.18 472.53 287.33 476.86 293.55 481.06 300.36 484.46 307.94 487 316.01 489.41 324.3 490.97 332.86 491.66 341.49 492.29 350.12 492.14 358.75 491.24 367.26 490.45 375.72 489.07 384.09 487.16 392.27 485.6 400.44 483.69 408.47 481.49 416.24 479.86 424.02 478.12 431.15 476.31 437.58 474.37 446.74 470.26 460.63 467.75 465.08 461.37 469.75 446.28 472.45 438.95 474.1 433.82 476.55 428.02 479.71 421.59 483.64 415.14 488.86 408.09 494.69 400.49 500.79 392.88 507.44 385.12 513.31 377.31 518.02 369.53 522.16 361.73 524.57 354.04 525.17 346.39 524.67 338.88 522.32 331.62 518.32 324.45 513.36 317.57 507.08 311.12 499.81 304.81 492 298.97 483.58 293.75 474.85 288.73 465.95 284.39 456.96 280.84 448.1 277.57 439.23 275.16 430.56 273.71 422.22 272.58 413.9 272.45 405.89 273.4 398.32 274.68 390.74 276.95 383.93 280.1 377.87 283.47 371.8 287.65 366.46 292.49 361.84 297.45 357.15 303.02 353.1 309.07 349.65 315.16 345.97 321.69 342.7 328.53 339.75 335.38 336.32 342.53 332.95 349.9 329.53 357.25 325.36 364.81 320.97 372.51 316.32 380.2 310.91 388.03 305.3 395.94 299.7 403.84 293.73 411.82 288.15 419.78 283.34" stroke-dasharray="21 1" transform="rotate(80.07142857142857, 400, 400)" opacity="0.44"></path><path d="M416.27 294.21C423.37 290.13 430.06 287.34 436.25 285.89 445.25 285.53 460.36 292.83 466.27 299.91 469.89 305.5 472.82 311.88 475 318.79 477.1 325.97 478.48 333.51 479.12 341.2 479.75 348.98 479.72 356.81 479.05 364.57 478.5 372.34 477.42 380 475.87 387.46 474.6 394.92 473 402.17 471.09 409.09 468.81 419.14 464.21 435.68 461.82 442.01 457.01 450.93 446.8 457.98 441.84 459.2 436.35 461.37 422.52 468.59 414.2 474.23 408.45 479.15 402.18 484.47 395.42 489.92 388.66 495.81 381.76 501.01 374.82 505.26 367.9 509.13 360.97 511.61 354.15 512.62 347.37 512.83 340.71 511.5 334.3 508.76 327.97 505.25 321.92 500.52 316.26 494.84 310.73 488.65 305.63 481.78 301.09 474.49 296.74 466.97 292.98 459.23 289.94 451.47 287.13 443.66 285.08 435.92 283.88 428.41 282.95 420.9 282.9 413.64 283.8 406.74 284.98 399.84 287.04 393.6 289.87 388.03 292.89 382.42 296.64 377.43 300.98 373.02 305.45 368.52 310.46 364.5 315.91 360.93 321.43 357.11 327.34 353.57 333.55 350.23 339.79 346.45 346.3 342.69 353 338.87 359.71 334.46 366.61 329.88 373.61 325.15 380.61 319.86 387.72 314.49 394.86 309.23 402 303.72 409.17 298.61 416.27 294.21" stroke-dasharray="33 30" transform="rotate(84.28571428571429, 400, 400)" opacity="0.35"></path><path d="M412.1 305.08C424.6 298.06 435.45 295.72 444.22 297.92 452.82 302.51 459.19 311.07 463.03 322.15 466.71 334.35 468.03 347.88 467.03 361.45 466.47 375.21 464.29 388.64 460.68 400.81 458.46 412.97 455.4 422.59 451.74 429.51 449.17 436.42 445.41 440.93 440.35 443.49 435.68 447.18 429.18 450.53 420.9 454.46 412.62 461.45 402.42 469.96 390.54 479.04 378.67 489.49 366.37 496.75 354.42 499.73 342.64 500.5 331.43 496.31 321.58 488.27 312.17 478.53 304.44 466.38 299.13 453.39 294.59 440.08 292.76 426.73 294.21 414.32 296.56 401.92 301.89 391.53 309.44 383.06 317.43 374.16 327.33 366.44 338.37 359.48 349.53 351.08 361.69 342.44 374.19 333.61 386.73 323.19 399.59 313.15 412.1 305.08" stroke-dasharray="29 33" transform="rotate(88.5, 400, 400)" opacity="0.95"></path><path d="M407.42 315.95C418.24 309.6 427.55 307.08 435.02 308.29 442.38 311.3 447.84 317.69 451.17 326.4 454.45 336.12 455.78 347.26 455.18 358.7 454.96 370.38 453.3 381.91 450.28 392.43 448.29 402.94 445.41 411.34 441.86 417.6 439.15 423.99 435.37 428.65 430.52 431.99 426.01 436.41 420.03 440.71 412.63 445.4 405.26 452.35 396.33 460.21 386.06 468.17 375.78 477.16 365.21 483.54 355.01 486.55 344.95 488.12 335.44 485.73 327.15 480.05 319.23 473.06 312.78 463.72 308.42 453.22 304.68 442.37 303.25 431.06 304.61 420.12 306.69 409.18 311.32 399.58 317.87 391.33 324.8 382.7 333.41 374.79 343.03 367.39 352.8 358.9 363.46 350.26 374.4 341.72 385.38 332.14 396.6 323.13 407.42 315.95" stroke-dasharray="24 27" transform="rotate(92.71428571428571, 400, 400)" opacity="0.37"></path><path d="M402.44 326.83C411.61 321.2 419.45 318.65 425.74 319.08 431.96 320.78 436.61 325.26 439.52 331.78 442.44 339.11 443.78 347.83 443.51 357.05 443.56 366.52 442.35 376.07 439.88 384.98 438.15 393.9 435.5 401.27 432.17 407.09 429.46 413.09 425.79 417.96 421.25 421.97 416.99 426.87 411.56 431.75 405.04 436.8 398.56 443.41 390.87 450.48 382.15 457.3 373.42 464.87 364.55 470.32 356.05 473.15 347.67 475.14 339.81 474.04 333.03 470.25 326.53 465.56 321.3 458.72 317.84 450.55 314.84 442.09 313.76 432.83 315.02 423.41 316.81 413.98 320.75 405.27 326.29 397.37 332.15 389.2 339.44 381.38 347.62 373.91 355.94 365.7 365.03 357.45 374.35 349.51 383.72 340.95 393.27 333.07 402.44 326.83" stroke-dasharray="8 31" transform="rotate(96.92857142857143, 400, 400)" opacity="0.22"></path><path d="M397.36 337.7C408.13 331.65 423.66 332.44 428.14 338.47 430.71 343.64 432.01 350.09 432.02 357.18 432.27 364.45 431.44 372.05 429.47 379.41 428.01 386.78 425.66 393.19 422.67 398.61 420.09 404.2 416.68 409.13 412.57 413.53 408.66 418.58 403.85 423.61 398.23 428.61 392.66 434.63 386.18 440.75 378.97 446.43 371.76 452.62 364.53 457.11 357.68 459.6 347.77 461.53 332.08 453.72 327.38 445.23 325.06 438.93 324.3 431.64 325.42 423.78 326.93 415.92 330.17 408.25 334.71 400.98 339.5 393.53 345.48 386.18 352.19 379.08 359.03 371.56 366.52 364.07 374.21 357.02 381.94 349.66 389.81 342.97 397.36 337.7" stroke-dasharray="32 14" transform="rotate(101.14285714285714, 400, 400)" opacity="0.87"></path><path d="M392.38 348.57C404.31 341.04 412.85 340.92 417.11 346.57 421.55 353.66 422.36 364.67 419.07 376.41 417.03 388.14 411.73 398.34 404.47 406.68 397.76 416.65 388.14 426.99 376.67 435.55 365.2 445.41 354.13 449.18 345.94 446.63 338.27 442.94 334.18 433.72 335.83 421.19 338.49 408.66 346.4 395.34 356.83 383.05 367.63 369.94 380.45 357.24 392.38 348.57" stroke-dasharray="17 22" transform="rotate(105.35714285714286, 400, 400)" opacity="0.08"></path><path d="M387.72 359.44C399.81 353.13 410.51 363.87 408.66 376.34 407.05 385.13 402.75 393.77 396.93 401.33 391.43 409.75 383.9 418.16 375.33 424.68 362.77 433.38 346.24 428.35 346.23 415.96 348.2 406.63 353.97 396 361.6 386.03 369.47 375.78 378.88 366.02 387.72 359.44" stroke-dasharray="24 17" transform="rotate(109.57142857142857, 400, 400)" opacity="0.20"></path><path d="M383.57 370.32C395.24 362.52 401.39 367.43 398.26 379.22 396.32 391 386.44 405.5 375.01 413.81 363.58 423.37 354.89 421.04 356.64 408.74 359.46 396.42 371.89 379.28 383.57 370.32" stroke-dasharray="25 28" transform="rotate(113.78571428571429, 400, 400)" opacity="0.94"></path></g></svg>