<svg xmlns="http://www.w3.org/2000/svg" version="1.1" xmlns:xlink="http://www.w3.org/1999/xlink" xmlns:svgjs="http://svgjs.dev/svgjs" viewBox="0 0 800 800"><defs><linearGradient x1="50%" y1="0%" x2="50%" y2="100%" id="uundulate-grad"><stop stop-color="hsl(162, 100%, 58%)" stop-opacity="1" offset="45%"></stop><stop stop-color="hsl(270, 73%, 53%)" stop-opacity="1" offset="100%"></stop></linearGradient></defs><g stroke-width="2" stroke="hsl(180, 69%, 30%)" fill="none"><path d="M635.6617886106067 158.86518444707553C684.326989036169 317.50165490933796 699.7052686290187 709.5966068957548 611.8475584048898 776.5176947712562C523.9898481807609 843.4387826467578 311.47620121903105 601.5015482858893 213.94477953478741 480.0864062494819C116.41335785054383 358.67126421307455 109.46552248147748 290.60496501672674 143.6967343205199 193.72501299650025C177.92794615956234 96.84506097627377 275.76187671842285 22.325100833525482 378.254596362191 15.062636552395361C480.7473160059592 7.8001722712652395 586.9965881850443 0.2287139848129982 635.6617886106067 158.86518444707553C684.326989036169 317.50165490933796 699.7052686290187 709.5966068957548 611.8475584048898 776.5176947712562 "></path><path d="M624.9498891283063 169.82581904074533C671.4030349890704 321.25154084563223 686.0823018731542 695.5239950144846 602.2181239319402 759.4032152592815C518.3539459907263 823.2824355040784 315.50001025452957 592.342348159613 222.40183501047886 476.4460762157696C129.3036597664282 360.5498042719262 122.67163509595576 295.57742776632153 155.34688276049627 203.10110992883256C188.02213042503678 110.62479209134369 281.4090641403127 39.49210286417485 379.24302380027325 32.5597505958234C477.0769834602338 25.62739832747195 578.4967432675423 18.400097235858425 624.9498891283063 169.82581904074533C671.4030349890704 321.25154084563223 686.0823018731542 695.5239950144846 602.2181239319402 759.4032152592815 "></path><path d="M614.2379896460061 180.7865146695715C658.4790809419719 325.00148781708276 672.4593351172897 681.4514441683708 592.5886894589908 742.2887967824631C512.7180438006917 803.1261493965553 319.5238192900282 583.183209068493 230.85889048617037 472.80580721721367C142.1939616823126 362.42840536593417 135.87774771043405 300.5499515510726 166.99703120047263 212.47726789632122C198.11631469051122 124.40458424156986 287.05625156220265 56.65916592998053 380.2314512383555 50.056925674407694C473.4066509145084 43.454685418834856 569.9968983500403 36.5715415220601 614.2379896460061 180.7865146695715C658.4790809419719 325.00148781708276 672.4593351172897 681.4514441683708 592.5886894589908 742.2887967824631 "></path><path d="M603.5261054224948 191.74711874566322C645.5551421536622 328.751343235799 658.8363836202143 667.3788017695226 582.9592702448303 725.1742867529101C507.0821568694462 782.9697717362978 323.5476435843159 574.0239784246387 239.31596122065093 469.16544666592335C155.08427885698597 364.3069149072078 149.0838755837014 305.52238378308925 178.64719489923806 221.8533343110755C208.21051421477472 138.18428483906166 292.70345424288155 73.82613744305183 381.21989393522676 67.55400920025761C469.7363336275721 61.28188095746344 561.4970686913273 54.7428942555274 603.5261054224948 191.74711874566322C645.5551421536622 328.751343235799 658.8363836202143 667.3788017695226 582.9592702448303 725.1742867529101 "></path><path d="M592.8142059401946 202.70784489206744C632.6311881065637 332.50132072482756 645.2134168643498 653.3062814409868 573.3298357718807 708.0598987936698C501.4462546794116 762.8135161463529 327.5714526198144 564.8648698510968 247.77301669634238 465.5252081849454C167.97458077287035 366.1855465187939 162.28998819817969 310.4949380854184 190.29734333921442 231.2295227961422C218.30469848024916 151.96410750686601 298.3506416647714 90.99323102643558 382.208321373309 85.05121479642008C466.0660010818466 79.10919856640453 552.9972237738253 72.9143690593072 592.8142059401946 202.70784489206744C632.6311881065637 332.50132072482756 645.2134168643498 653.3062814409868 573.3298357718807 708.0598987936698 "></path><path d="M582.1022759403161 213.66851000331542C619.707203541887 336.2512371787001 631.5904195909072 639.2337000772949 563.7003707813531 690.9454497992733C495.8103219717989 742.6571995212518 331.5952311377349 555.7057002423987 256.23004165445576 461.88490866881125C180.8648521711766 368.06411709522376 175.4960702950799 315.46743135259135 201.94746126161266 240.60565024605273C228.39885222814547 165.74386913951406 303.99779856908316 108.16026357466313 383.1967182938131 102.54835935742625C462.3956380185431 96.93645514018931 544.4973483387452 91.08578282793081 582.1022759403161 213.66851000331542C619.707203541887 336.2512371787001 631.5904195909072 639.2337000772949 563.7003707813531 690.9454497992733 "></path><path d="M571.3903764580157 224.62920563214152C606.7832494947884 340.0011841501506 617.9674528350426 625.1611492311811 554.0709363084036 673.8310313224549C490.1744197817643 722.5009134137287 335.61904017323343 546.5465611512789 264.6870971301472 458.2446396702553C193.755154087061 369.94271818923175 188.7021829095582 320.4399551373424 213.59760970158902 249.9818082135414C238.4930364936199 179.5236612897403 309.64498599097305 125.32732664046881 384.1851457318953 120.04553443601054C458.7253054728176 114.76374223155227 535.9975034212432 109.25722711413249 571.3903764580157 224.62920563214152C606.7832494947884 340.0011841501506 617.9674528350426 625.1611492311811 554.0709363084036 673.8310313224549 "></path><path d="M560.6784769757155 235.5898707433895C593.8592954476899 343.751100604023 604.3444860791783 611.088567867489 544.441501835454 656.7165823280583C484.5385175917297 702.3445967886274 339.64284920873206 537.3873915425806 273.1441526058387 454.60434015412125C206.64545600294537 371.8212887656616 201.90829552403648 325.41244840451543 225.24775814156544 259.3579356634518C248.58722075909435 193.30342292238834 315.2921734128629 142.49435918869636 385.17357316997754 137.5426789970167C455.0549729270922 132.5909988053371 527.4976585037411 127.42864088275604 560.6784769757155 235.5898707433895C593.8592954476899 343.751100604023 604.3444860791783 611.088567867489 544.441501835454 656.7165823280583 "></path><path d="M549.9665927522042 246.55053585463753C580.9353566593802 347.5010170578955 590.7215345821028 597.0159865037971 534.8120826212935 639.6021333336616C478.9026306604842 682.1882801635262 343.6666735030197 528.2282219338827 281.6012233403193 450.96404063798707C219.5357731776188 373.6998593420915 215.11442339730382 330.38494167168824 236.89792184033087 268.73406311336237C258.68142028335785 207.08318455503644 320.9393760935418 159.66139173692386 386.16201586684883 155.03982355802287C451.38465564015587 150.4182553791219 518.9978288450282 145.6000546513796 549.9665927522042 246.55053585463753C580.9353566593802 347.5010170578955 590.7215345821028 597.0159865037971 534.8120826212935 639.6021333336616 "></path><path d="M539.254693269904 257.51123148346363C568.0114026122817 351.25096402934605 577.0985678262383 582.9434356576833 525.182648148344 622.4877148568432C473.2667284704496 662.0319940560032 347.6904825385183 519.0690828427627 290.0582788160107 447.323771639431C232.4260750935032 375.5784604360995 228.3205360117821 335.3574654564394 248.54807028030723 278.11022108085103C268.7756045488323 220.8629767052626 326.5865635154317 176.82845480272954 387.15044330493106 172.53699863660722C447.7143230944305 168.24554247048485 510.4979839275262 163.77149893758127 539.254693269904 257.51123148346363C568.0114026122817 351.25096402934605 577.0985678262383 582.9434356576833 525.182648148344 622.4877148568432 "></path><path d="M528.5427937876036 268.47188133592255C555.0874485651831 355.0008652244294 563.4756010703738 568.8708390352022 515.5532136753944 605.3732506036575C467.630826280415 641.8756621721129 351.7142915740169 509.9098979752755 298.51533429170223 443.6834568645079C245.31637700938757 377.4570157537403 241.52664862626045 340.32994346482326 260.1982187202836 287.4863332719724C278.86978881430673 234.6427230791216 332.2337509373216 193.99547209216803 388.1388707430133 190.03412793882433C444.0439905487051 186.07278378548062 501.99813901002415 181.94289744741576 528.5427937876036 268.47188133592255C555.0874485651831 355.0008652244294 563.4756010703738 568.8708390352022 515.5532136753944 605.3732506036575 "></path><path d="M517.8308943053033 279.4325769647487C542.1634945180845 358.7508121958799 549.8526343145094 554.7982881890883 505.92377920244485 588.258832126839C461.99492409038044 621.7193760645898 355.7381006095155 500.75075888415563 306.9723897673937 440.04318786595195C258.2066789252719 379.33561684774827 254.73276124073874 345.3024672495743 271.84836716025995 296.86249123946106C288.96397307978117 248.42251522934782 337.8809383592114 211.16253515797365 389.1272981810955 207.53130301740862C440.3736580029796 203.90007087684353 493.4982940925222 200.11434173361744 517.8308943053033 279.4325769647487C542.1634945180845 358.7508121958799 549.8526343145094 554.7982881890883 505.92377920244485 588.258832126839 "></path><path d="M507.1189643054249 290.39325733478574C529.2395099534078 362.5007439085414 536.2296370410668 540.7257220841855 496.29431421191725 571.1443983912316C456.3589913827677 601.5630746982777 359.761879127436 491.59160453424647 315.42941472550706 436.40290360860683C271.09695032357814 381.2142026829671 267.9388433376389 350.2749757755363 283.4984850826582 306.2386339481606C299.0581268276775 262.20229212078493 343.5280952635232 228.32958296499027 390.1156951015996 225.02846283720385C436.7032949396761 221.72734270941743 484.998418657442 218.28577076103005 507.1189643054249 290.39325733478574C529.2395099534078 362.5007439085414 536.2296370410668 540.7257220841855 496.29431421191725 571.1443983912316 "></path><path d="M496.40711059949183 301.3539377048228C516.3156016826764 366.25067562120284 522.6067160615694 526.6531559792825 486.66492551533486 554.029964655624C450.72313496910033 581.4067733319655 363.78573393930174 482.43245018433754 323.88651597756575 432.7626193512617C283.9872980158297 383.092788518186 281.1450017284844 355.2474843014983 295.14867929900174 315.61477665686016C309.1523568695191 275.98206901222204 349.1753284617802 245.49663077200688 391.104168316049 242.52562265699908C433.03300817031777 239.55461454199133 476.49861951630714 236.45719978844267 496.40711059949183 301.3539377048228C516.3156016826764 366.25067562120284 522.6067160615694 526.6531559792825 486.66492551533486 554.029964655624 "></path><path d="M485.69521111719143 312.3145875572817C503.3916476355778 370.00057681628624 508.9837493057049 512.5805593568015 477.0354910423854 536.9155004024384C445.08723277906574 561.2504414480752 367.8095429748003 473.27326531685037 332.3435714532572 429.1223045763386C296.8775999317141 384.9713438358268 294.35111434296266 360.21996230988213 306.7988277389781 324.99088884798164C319.24654113499355 289.7618153860811 354.8225158836701 262.6636480614453 392.09259575413125 260.0227519592162C429.3626756245924 257.3818558569871 467.9987745988052 254.62859829827715 485.69521111719143 312.3145875572817C503.3916476355778 370.00057681628624 508.9837493057049 512.5805593568015 477.0354910423854 536.9155004024384 "></path><path d="M474.98331163489115 323.2752831861078C490.46769358847916 373.7505237877368 495.36078254984045 498.50800851068766 467.4060565694358 519.8010819256199C439.45133058903116 541.0941553405521 371.83335201029894 464.1141262257304 340.8006269289487 425.48203557778265C309.76790184759847 386.8499449298348 307.557226957441 365.1924860946332 318.44897617895447 334.36704681547025C329.340725400468 303.54160753630725 360.46970330555996 279.830711127251 393.0810231922135 277.5199270378005C425.692343078867 275.20914294835 459.49892968130314 272.80004258447883 474.98331163489115 323.2752831861078C490.46769358847916 373.7505237877368 495.36078254984045 498.50800851068766 467.4060565694358 519.8010819256199 "></path><path d="M464.27141215259087 334.23594829735583C477.54373954138055 377.5004402416092 481.737815793976 484.4354271469956 457.7766220964863 502.68663293122336C433.8154283989966 520.937838715451 375.8571610457975 454.9549566170323 349.25768240464015 421.8417360616485C322.65820376348285 388.72851550626467 320.7633395719193 370.16497936180616 330.09912461893083 343.74317426538073C339.4349096659424 317.32136916895536 366.11689072744986 296.99774367547855 394.0694506302957 295.0170715988067C422.0220105331416 293.03639952213484 450.99908476380114 290.9714563531024 464.27141215259087 334.23594829735583C477.54373954138055 377.5004402416092 481.737815793976 484.4354271469956 457.7766220964863 502.68663293122336 "></path><path d="M453.55948215271246 345.1966286673929C464.6197549767039 381.2503719542707 468.1148185205334 470.36286104209273 448.1471571059586 485.5721991956158C428.17949569138386 500.78153734913883 379.88093956371796 445.79580226712324 357.71470736275353 418.2014518043034C335.5484751617891 390.60710134148354 333.96942166881945 375.13748788776815 341.7492425413291 353.11931697408033C349.52906341383874 331.10114606039247 371.76404763176157 314.16479148249516 395.0578475507998 312.5142314186019C418.35164746983804 310.86367135470874 442.499209328721 309.14288538051505 453.55948215271246 345.1966286673929C464.6197549767039 381.2503719542707 468.1148185205334 470.36286104209273 448.1471571059586 485.5721991956158 "></path><path d="M442.84761318799025 356.1573090374299C451.6958314471834 385.00030366693215 454.491882282247 456.2902949371898 438.5177531505872 468.45776546000826C422.5436240189274 480.62523598282667 383.9047791167947 436.63664791721425 366.17179335602316 414.56116754695836C348.4388075952516 392.48568717670247 347.17556480087586 380.10999641373013 353.3994214988836 362.4954596827799C359.6232781968913 344.8809229518296 377.4112655712296 331.3318392895117 396.04630550646016 330.01139123839715C414.6813454416907 328.6909431872826 433.99939492879713 327.31431440792767 442.84761318799025 356.1573090374299C451.6958314471834 385.00030366693215 454.491882282247 456.2902949371898 438.5177531505872 468.45776546000826 "></path><path d="M432.13571370568997 367.1179741486779C438.7718774000848 388.7502201208046 440.8689155263825 442.2177135734978 428.8883186776377 451.3433164656117C416.9077218288928 460.4689193577255 387.9285881522933 427.47747830851614 374.6288488317146 410.92086803082424C361.3291095111359 394.36425775313234 360.38167741535415 385.08248968090305 365.04956993886 371.87158713269037C369.71746246236575 358.6606845844777 383.05845299311943 348.4988718377393 397.0347329445424 347.5085357994033C411.01101289596534 346.5181997610674 425.4995500112951 345.4857281765512 432.13571370568997 367.1179741486779C438.7718774000848 388.7502201208046 440.8689155263825 442.2177135734978 428.8883186776377 451.3433164656117 "></path><path d="M421.4237989646006 378.078654518715C425.8479080941972 392.5001518334661 427.245933511729 428.1451474685949 419.25886894589905 434.2288827300041C411.27180438006917 440.31261799141333 391.9523819290028 418.31832395860715 383.08588904861705 407.2805837734792C374.21939616823124 396.24284358835126 373.5877747710434 390.0549982068651 376.6997031200473 381.2477298413899C379.8116314690511 372.4404614759148 388.70562515622026 365.6659196447559 398.02314512383555 365.0056956191986C407.34066509145083 364.3454715936413 416.999689835004 363.65715720396383 421.4237989646006 378.078654518715C425.8479080941972 392.5001518334661 427.245933511729 428.1451474685949 419.25886894589905 434.2288827300041 "></path><path d="M410.7118994823003 389.03931962996296C412.9239540470986 396.25006828733854 413.62296675586447 414.07256610490293 409.6294344729495 417.1144337356075C405.6359021900346 420.15630136631216 395.9761909645014 409.15915434990904 391.5429445243085 403.64028425734506C387.1096980841156 398.1214141647811 386.7938873855217 395.027491474038 388.34985156002364 390.62385729130045C389.90581573452556 386.2202231085629 394.3528125781101 382.8329521929834 399.0115725619178 382.50284018020477C403.67033254572544 382.1727281674261 408.499844917502 381.8285709725874 410.7118994823003 389.03931962996296C412.9239540470986 396.25006828733854 413.62296675586447 414.07256610490293 409.6294344729495 417.1144337356075 "></path></g></svg>