<svg xmlns="http://www.w3.org/2000/svg" version="1.1" xmlns:xlink="http://www.w3.org/1999/xlink" xmlns:svgjs="http://svgjs.dev/svgjs" viewBox="0 0 800 800"><defs><linearGradient x1="50%" y1="0%" x2="50%" y2="100%" id="ssscribble-grad"><stop stop-color="hsl(162, 100%, 58%)" stop-opacity="1" offset="0%"></stop><stop stop-color="hsl(270, 73%, 53%)" stop-opacity="1" offset="100%"></stop></linearGradient></defs><g fill="none" stroke-width="1" stroke="url(#ssscribble-grad)" stroke-linecap="round"><path d="M758.08 375.59C772.37 394.2 773.2 417.02 761.38 443.52 739.74 470.11 709.43 500.37 673.99 533.37 636.37 565.62 599.11 599.04 564.7 631.25 534.26 659.2 508.71 681.95 488.06 696.25 472.43 701.71 460.43 695.9 450.75 678.41 444.15 654.58 437.8 624.48 430.44 593.36 419.95 563.84 385.35 597.37 359.33 659.04 340.72 705.26 319.23 741.91 295.49 762.6 271.96 766.34 246.66 750.85 220.63 720 195.75 678.73 171.47 632.53 149.38 587.4 130.39 546.42 115.68 513.18 106.93 488.51 104.94 467.75 143.07 458.24 177.35 456.93 209.01 454.74 235.67 428.98 219.08 403.67 194.74 385.06 165.81 362.14 136.17 335.55 106.51 309.04 82.85 279.16 67.47 247.12 59.27 216.35 61.18 185.39 72.21 156.78 90.3 133.07 115 115.63 143.91 107.38 176.02 107.66 209.36 118.85 242.11 140.45 275.09 166.21 306.2 195.72 334.78 223.36 362.75 240.57 388.33 245.47 411.44 234.55 434.27 206.68 455.08 166.26 473.69 120.04 500.05 60.26 536.19 48.26 544.59 96.71 548.26 141.47 547.78 188.26 543.48 231.46 539.4 268.32 532.78 296.19 525.05 315.11 519.2 327.17 534.89 324.95 564.11 323.56 593.12 322.8 627.36 326.38 664.21 334.89 701.03 343.47 733.73 356.98 758.07 375.58Q758.08 375.59 758.08 375.59" opacity="0.85"></path><path d="M733.58 436.45C750.92 470.27 724.42 518.19 668.78 572.09 601.2 619.36 536.01 656.98 484.16 666.82 446.59 651.18 419.95 605.47 396.98 551.78 378.98 532.68 354.94 561.69 321.12 634.54 287.29 713.81 246.87 743.64 206.25 713.17 170.6 641.82 144.44 558.41 137.68 491.24 145.2 446.39 174.51 422.47 217.29 405.76 248.13 396.8 260.92 378.54 243.58 344.71 193.76 310.89 139.6 264.7 102.42 215.03 85.17 173.12 100.42 144.25 138.64 144.76 190.98 167.59 248.88 215.12 301.8 261.68 354.87 267.35 399.85 223.81 433.67 144.54 467.5 71.69 486.97 56.39 492.53 100.29 498.23 178.78 493.12 260.37 485.12 320.34 491.23 354.84 511.87 370.01 553.92 381.37 615.88 386.08 683.76 402.62 733.58 436.45Q733.58 436.45 733.58 436.45" opacity="0.93"></path><path d="M709.09 485.23C726.45 515.67 707.37 552.98 662.28 589.17 603.85 618.11 542.52 632.48 489.03 621.71 444.25 596.36 409.03 553.58 379.86 514.02 355.04 508.49 328.75 542.72 298.31 610.01 267.86 682.59 236.15 716.91 208.21 701.85 184.62 649.12 172.32 576.21 177.2 507.74 190.78 449.94 219.82 409.23 255.94 379.86 278.71 357.92 285.45 334.47 268.09 304.03 224.26 273.58 175.99 239.03 139.53 208.2 116 184.81 118.53 178 142.04 195.9 178.83 224.47 224.48 265.08 269.29 295.5 315.94 288.26 356.64 241.6 387.08 169.04 417.53 101.73 434.84 79.83 440.95 107.67 448.9 169.54 450.77 244.62 453.88 309.87 470.27 360.55 500.02 393.69 545.87 417.51 604.64 434.08 665.25 454.78 709.08 485.22Q709.09 485.23 709.09 485.23" opacity="0.78"></path><path d="M684.59 505.84C701.57 532.9 688.97 558.52 654 577.12 605.89 590.12 551.52 587.46 500.47 565.55 453.36 538.9 413.44 505.03 380.35 480.82 350.37 486.92 322.4 524.26 295.34 585.51 256.48 669.32 212.8 622.68 223.29 532.31 238.87 471.76 264.53 422 292.8 383.85 307.94 350.83 309.57 322.16 292.59 295.1 254.58 268.04 212.53 245.14 178.35 231.27 151.53 222.52 144.57 230.05 155.49 255.12 177.32 281.3 209.49 310.04 244.23 324.26 281.55 306.63 315.95 258.99 343.01 193.54 370.07 132.28 387.24 105.89 396.82 119.63 408.97 163.66 419.03 226.25 432.67 288.36 457.22 345.74 492.89 390.64 539.55 424.54 593.56 452.83 646.58 478.78 684.59 505.84Q684.59 505.84 684.59 505.84" opacity="0.48"></path><path d="M660.09 491.45C676.29 515.13 669.15 530.98 643.52 536.63 606.12 539.31 560.88 528.28 515.67 504.87 470.9 483.67 430.67 462.22 396.77 452.75 364.61 467.9 336.47 506.27 312.79 561.01 280.62 637.5 257.76 626.76 273.13 557.93 287.31 504.02 307.43 454.4 327.47 413.91 335.75 375.66 333.29 344.55 317.09 320.87 284.71 297.19 249.01 283.19 218.4 280.4 184.53 286.19 198.26 340.63 232.38 347.63 259.27 322.61 286.38 276.02 310.05 218.04 333.74 163.28 351.75 134.5 365.89 136.7 382.54 163.52 400.03 210.09 421.88 262.32 451.6 316.77 489.72 364.76 534.44 403.12 582.4 438.5 627.7 467.76 660.08 491.44Q660.09 491.45 660.09 491.45" opacity="0.21"></path><path d="M635.59 446.81C650.62 467.11 647.85 476.92 630.47 476.44 603.45 475.35 568.43 464.3 531.41 446.94 492.79 435.24 456.3 427.03 424.81 430.08 393.91 451.33 367.56 488.71 347.26 536.51 314.95 613.27 340.69 515.88 359.57 458.87 362.08 422.59 356.62 393.1 341.59 372.81 314.63 352.51 285.27 343.32 259.16 344.43 225.74 350.43 217.49 376.84 237.28 365.58 254.44 336.37 274.37 292.73 294.66 242.51 314.96 194.7 333.7 165.55 351.72 159.18 371.66 171.01 394.22 200.75 420.87 239.04 452.36 283.01 489.6 325.74 530.05 361.99 571.03 397.65 608.62 426.51 635.58 446.8Q635.59 446.81 635.59 446.81" opacity="0.10"></path><path d="M611.09 386.69C628.43 420.51 596.83 418.11 544.45 398.57 482.81 402.99 425.85 439.17 392.03 512.01 356.05 602.56 381.34 498.09 366.09 433.74 316.27 399.91 271.98 399.72 254.8 411.31 247.01 396.24 265.99 346.3 299.82 267.01 333.65 194.17 375.92 185.41 428.04 225.33 489.56 289.21 561.27 352.86 611.09 386.69Q611.09 386.69 611.09 386.69" opacity="0.14"></path><path d="M586.59 330.96C603.57 358.02 586.37 364.09 551.8 364.97 508.73 384.17 465.41 426.26 438.35 487.51 408.44 567.91 409.94 529.83 390.59 483.51 352.58 456.44 318.47 445.96 302.38 436.68 289.2 408.77 297.46 356.98 324.53 291.51 351.59 230.26 392.33 210.11 440.97 226.37 492.53 260.97 548.58 303.9 586.59 330.96Q586.59 330.96 586.59 330.96" opacity="0.73"></path><path d="M562.09 298.07C577.12 318.37 570.48 333.02 551.03 348.86 525.82 374.96 497.48 415.21 477.18 463.01 452.68 528.07 435.03 534.95 415.09 505.65 388.12 485.35 364.66 466.61 352.74 444.27 340.54 412.35 343.66 366.24 363.96 316.01 384.26 268.21 417.89 244.41 456.69 244.92 495.21 255.68 535.12 277.77 562.09 298.07Q562.09 298.07 562.09 298.07" opacity="0.14"></path><path d="M537.59 298.89C554.57 325.95 528.01 377.26 500.95 438.51 473.88 503.99 456.57 519.92 439.59 492.86 401.57 465.79 383.36 405.99 410.43 340.51 437.49 279.26 499.57 271.82 537.59 298.89Q537.59 298.89 537.59 298.89" opacity="0.82"></path></g></svg>